<svg width="12" height="12" viewBox="0 0 12 12" fill="none" xmlns="http://www.w3.org/2000/svg">
<g clip-path="url(#clip0)">
<path fill-rule="evenodd" clip-rule="evenodd" d="M8.24603 5.99099L11.623 2.61299C12.118 2.11799 12.118 1.30699 11.623 0.81199L11.173 0.36199C10.677 -0.13401 9.86703 -0.13401 9.37103 0.36199L5.99402 3.73899L2.61602 0.36199C2.12202 -0.13301 1.31102 -0.13301 0.816024 0.36199L0.365024 0.81199C-0.129976 1.30699 -0.129976 2.11799 0.365024 2.61299L3.74202 5.98999L0.365024 9.36799C-0.129976 9.86299 -0.129976 10.674 0.365024 11.169L0.816024 11.619C1.31102 12.114 2.12202 12.114 2.61602 11.619L5.99402 8.24199L9.37103 11.619C9.86703 12.114 10.677 12.114 11.173 11.619L11.623 11.169C12.118 10.673 12.118 9.86299 11.623 9.36799L8.24603 5.99099Z"/>
</g>
<defs>
<clipPath id="clip0">
<rect width="12" height="12" fill="white"/>
</clipPath>
</defs>
</svg>
